<svg xmlns="http://www.w3.org/2000/svg" width="1365" height="768" viewBox="0 0 1365 768">
  <!-- Z1: Header -->
  <rect x="0" y="0" width="1365" height="72" fill="none" stroke="#00FF00" stroke-dasharray="6,6"/>
  
  <!-- Z2: Left panel -->
  <rect x="24" y="72" width="258" height="548" fill="none" stroke="#FFAA00" stroke-dasharray="6,6"/>
  
  <!-- Z3: Main canvas with timeline-focused nodes -->
  <rect x="282" y="72" width="576" height="548" fill="none" stroke="#00AEEF" stroke-dasharray="6,6"/>
  
  <!-- Nodes for specific date (some faded in/out) -->
  <circle cx="570" cy="346" r="32" fill="none" stroke="#B0F8F8" stroke-dasharray="4,4" stroke-width="2" opacity="0.8"/>
  <circle cx="450" cy="280" r="20" fill="none" stroke="#689098" stroke-dasharray="4,4" stroke-width="1.5" opacity="0.6"/>
  <circle cx="690" cy="280" r="20" fill="none" stroke="#689098" stroke-dasharray="4,4" stroke-width="1.5" opacity="0.6"/>
  <circle cx="450" cy="420" r="20" fill="none" stroke="#689098" stroke-dasharray="4,4" stroke-width="1.5" opacity="0.6"/>
  <circle cx="690" cy="420" r="20" fill="none" stroke="#689098" stroke-dasharray="4,4" stroke-width="1.5" opacity="0.6"/>
  
  <!-- Highlighted nodes for current date -->
  <circle cx="520" cy="200" r="18" fill="none" stroke="#A85068" stroke-dasharray="4,4" stroke-width="2" opacity="1"/>
  <circle cx="620" cy="200" r="18" fill="none" stroke="#A85068" stroke-dasharray="4,4" stroke-width="2" opacity="1"/>
  
  <!-- Z4: Right sidebar with animated highlights -->
  <rect x="858" y="72" width="360" height="548" fill="none" stroke="#FF00AA" stroke-dasharray="6,6"/>
  
  <!-- Highlighted ranking items -->
  <rect x="870" y="100" width="340" height="48" fill="none" stroke="#3B82F6" stroke-dasharray="3,3" stroke-width="2"/>
  <rect x="870" y="160" width="340" height="48" fill="none" stroke="#3B82F6" stroke-dasharray="3,3" stroke-width="2"/>
  
  <!-- Z5: Timeline with moved playhead -->
  <rect x="0" y="620" width="1365" height="148" fill="none" stroke="#AA00FF" stroke-dasharray="6,6"/>
  
  <!-- Timeline playhead moved to different position -->
  <line x1="820" y1="640" x2="820" y2="680" stroke="#3B82F6" stroke-width="2"/>
  <circle cx="820" cy="660" r="8" fill="#3B82F6"/>
  
  <!-- Timeline ticks -->
  <line x1="200" y1="650" x2="200" y2="670" stroke="#FFFFFF" stroke-width="1" opacity="0.3"/>
  <line x1="400" y1="650" x2="400" y2="670" stroke="#FFFFFF" stroke-width="1" opacity="0.3"/>
  <line x1="600" y1="650" x2="600" y2="670" stroke="#FFFFFF" stroke-width="1" opacity="0.3"/>
  <line x1="1000" y1="650" x2="1000" y2="670" stroke="#FFFFFF" stroke-width="1" opacity="0.3"/>
  <line x1="1200" y1="650" x2="1200" y2="670" stroke="#FFFFFF" stroke-width="1" opacity="0.3"/>
</svg>
